<?xml version="1.0" encoding="utf-8"?>
<!-- Generator: Adobe Illustrator 24.0.1, SVG Export Plug-In . SVG Version: 6.00 Build 0)  -->
<svg version="1.1" id="Layer_1" xmlns="http://www.w3.org/2000/svg" xmlns:xlink="http://www.w3.org/1999/xlink" x="0px" y="0px"
	 viewBox="0 0 448 336" style="enable-background:new 0 0 448 336;" xml:space="preserve">
<style type="text/css">
	.st0{fill:#FFFFFF;}
	.st1{fill:#0084CB;}
	.st2{fill:#F08020;}
	.st3{fill:#F8B413;}
	.st4{fill:#37AF4A;}
	.st5{fill:#645FA5;}
	.st6{fill:#C4234A;}
</style>
<rect id="background_1_" class="st0" width="448" height="336"/>
<g id="logo_1_">
	<path class="st1" d="M291.8,159.4c0-9.8-8-18-17.7-17.7c-8,0.3-13.6,4-17.3,13.3l-22.1,52.5l47.9-32.3c1.5-0.9,2.7-1.9,2.7-1.9
		C289.3,170.1,291.8,165,291.8,159.4z"/>
	<path class="st2" d="M156.2,159.4c0-9.8,8-18,17.7-17.7c8,0.3,13.6,4,17.3,13.3l22.1,52.5l-50.5-34.2
		C158.8,170.1,156.2,165,156.2,159.4z"/>
	<path class="st3" d="M218.2,213.3l-47.7-32.1c-4.2-2.8-7.8-3.8-11.4-3.8c-9.7,0-17.6,7.9-17.6,17.6s7.9,18.3,17.6,18.3
		C159.3,213.4,218.2,213.3,218.2,213.3z"/>
	<path class="st4" d="M229.8,213.3l47.7-32.1c4.2-2.8,7.8-3.8,11.4-3.8c9.7,0,17.6,7.9,17.6,17.6s-7.9,18.3-17.6,18.3
		C288.7,213.4,229.8,213.3,229.8,213.3z"/>
	<path class="st5" d="M242.5,118.8c-9.7-0.2-17.6,8.3-17.6,18c0,0.3,0,0.8,0,1.2c1.5,0,5.7,0.1,6.2,0.2c1,0.2,1.9,0.6,1.9,0.9
		c0,0.3-1.4,0.5-4.2,2.7c-2.3,1.9-2.3,3.5-2.5,4.3c-0.2,0.7,0,2.6,0,2.6l0,0c2.8,17.2,9.3,51.6,9.3,51.6s21.5-51.8,22.2-53.9
		c1.5-4.7,2-7,2-9.3C259.9,127.2,252.2,119,242.5,118.8z"/>
	<path class="st6" d="M223.2,136.7c0-9.7-7.9-18.1-17.6-18c-9.7,0.2-17.4,8.3-17.4,18c0,2.3,0.3,4.4,0.8,6
		c1.1,3.2,23.7,57.2,23.7,57.2s10.1-57.1,10.4-61C223.2,138,223.2,137.4,223.2,136.7z"/>
</g>
</svg>
