<?xml version="1.0" encoding="utf-8"?>
<!-- Generator: Adobe Illustrator 24.0.1, SVG Export Plug-In . SVG Version: 6.00 Build 0)  -->
<svg version="1.1" id="Layer_1" xmlns="http://www.w3.org/2000/svg" xmlns:xlink="http://www.w3.org/1999/xlink" x="0px" y="0px"
	 viewBox="0 0 448 336" style="enable-background:new 0 0 448 336;" xml:space="preserve">
<style type="text/css">
	.st0{fill:#DC141E;}
	.st1{fill:#FFFFFF;}
</style>
<rect id="background_8_" class="st0" width="448" height="336"/>
<path id="logo_8_" class="st1" d="M173.8,168.4c0-14.6,5.4-23.9,11.9-24.8c-6.4-8-17.2-12.1-27-12.1c-10.8,0-20.4,4.7-27.1,12.1
	c6.4,1.2,8.5,6.6,8.5,14.9h-7.8c0-4.9-1-7.4-3.9-7.4c-1.3,0-2.3,0.7-2.9,1.8c-0.1,0.2-0.2,0.3-0.3,0.6c-0.3,0.7-0.3,1.4-0.3,2.1
	c0,10.1,16.6,9.6,16.6,25.1c0,6.1-4.7,11.7-9.9,11.7c6.9,7.5,16.2,12.1,27.1,12.1c10.5,0,20-4.4,26.7-11.5
	C179.1,191.3,173.8,182.5,173.8,168.4z M170.3,192.5H162v-20.8h-9v20.8h-8.5v-47.9h8.4v19.3h9.1v-19.3h8.3L170.3,192.5L170.3,192.5z
	 M122.2,167.2c5.8,5.2,11.2,6.4,11.2,12.7c0,2.9-1.6,5-4,5C125.4,184.8,122.1,177.8,122.2,167.2z M182.1,167.7
	c0-8.1,2.4-16.2,6.6-16.2c5,0,6.4,12.5,6.4,16.4c0,8.6-2.7,16.5-6.4,16.5C184.4,184.3,182.1,176.1,182.1,167.7z M267.5,191.9H259
	v-39.4h-7.8v39.4h-8.5v-39.4h-7.2l-5.1,39.4h-7.7l-4.1-29.5h-0.1l-4.2,29.5h-7.4l-6.2-46.6h7.7l3,27.4h0.1l4.1-27.4h7.7l3.7,27.4
	h0.1l3.3-27.4h37L267.5,191.9L267.5,191.9z M271.6,145.3H283l3.8,23.9h0.1l4-23.9H302v46.6h-7.6v-34.1h-0.1l-5.8,34.1h-4.7
	l-5.7-34.1h-0.2v34.1h-6.3L271.6,145.3L271.6,145.3z M306.2,145.3h19.2v7.2h-10.8v11.9h7.9v7.6h-7.9v12.7h11.2v7.2h-19.7V145.3z"/>
</svg>
